# xmcd CD Database Entry
#
# Track frame offsets:
# 188
# 12413
# 25988
# 37613
# 55838
# 67088
# 80813
# 95663
# 102863
# 112838
# 126113
# 140738
#
# Disc length: 2154 seconds
#
# Revision: 1
# Processed by: cddbd v1.4PL0 Copyright (c) Steve Scherf et al.
# Submitted via: tcd 2.0b
#
DISCID=9f08680c
DTITLE=El último ke zierre
DYEAR=1900
DGENRE=
TTITLE0=La carne
TTITLE1=Me hago el loco
TTITLE2=Madre, rómpele la cara a ese cabrón
TTITLE3=Tú me vicias
TTITLE4=¡Qué se reparten el mundo!
TTITLE5=El parto
TTITLE6=Ay, carmela
TTITLE7=¿Cual es el perro qué no tiene alma?
TTITLE8=Confusión y muerte
TTITLE9=Altero mi cuerpo
TTITLE10=Sueños de un magrebí
TTITLE11=Hachís(Soy un porrero)
EXTD=Que se repartan el mundo
EXTT0=
EXTT1=
EXTT2=
EXTT3=
EXTT4=
EXTT5=
EXTT6=
EXTT7=
EXTT8=
EXTT9=
EXTT10=
EXTT11=
PLAYORDER=
